<svg xmlns="http://www.w3.org/2000/svg" width="16" height="16" viewBox="0 0 16 16" fill="none">
  <path d="M8 1.25c.22 1.96.78 3.52 1.75 4.75C10.72 7.03 12.04 7.78 14 8c-1.96.22-3.28.97-4.25 1.75C8.72 10.72 8.22 12.04 8 14c-.22-1.96-.78-3.28-1.75-4.25C5.28 8.97 3.96 8.22 2 8c1.96-.22 3.28-.97 4.25-2C6.22 4.78 6.78 3.46 8 1.25Z" fill="#E8A317" stroke="#8a5a00" stroke-width="0.5" stroke-linejoin="round"/>
  <path d="M12.5 2.5c.08.62.27 1.12.58 1.5.31.38.81.57 1.42.58-.61.01-1.11.2-1.42.58-.31.38-.5.88-.58 1.5-.08-.62-.27-1.12-.58-1.5-.31-.38-.81-.57-1.42-.58.61-.01 1.11-.2 1.42.58.31-.38.5.88.58-1.5Z" fill="#F4C430"/>
</svg>
